P2
# CREATOR: GIMP PNM Filter Version 1.1
42 42
255
87
86
90
89
95
96
100
104
108
114
114
101
107
105
86
81
79
75
79
89
91
99
119
127
142
165
185
208
224
224
225
225
224
224
224
243
245
245
245
244
243
241
79
80
81
83
86
87
94
96
101
108
108
99
103
96
80
79
79
73
83
89
93
100
123
124
131
166
186
195
228
229
230
230
229
229
227
245
247
247
245
245
245
243
70
73
72
75
77
80
85
89
96
102
104
95
99
90
74
76
75
75
81
88
94
99
121
125
128
163
189
194
229
233
233
233
233
233
232
247
248
248
247
246
245
244
62
63
62
64
66
71
76
80
89
94
100
90
95
85
68
66
68
62
72
81
93
99
118
127
130
154
186
194
221
236
237
237
237
236
236
241
247
248
248
247
245
245
52
52
52
54
55
61
65
71
81
87
95
86
86
77
60
61
70
62
69
74
85
96
111
128
132
157
176
196
210
235
238
239
239
238
238
242
248
248
248
248
247
245
43
42
42
42
45
50
55
64
71
79
89
82
77
74
60
64
71
62
70
75
80
89
105
127
133
161
162
186
200
225
241
242
240
241
240
238
242
248
248
248
247
245
34
32
32
34
36
40
45
53
61
71
83
77
72
73
60
65
70
65
70
75
79
85
98
123
133
160
164
171
194
212
238
243
242
242
242
240
238
242
242
247
246
245
26
24
24
25
27
32
37
45
52
64
75
74
67
73
62
68
70
70
71
77
79
81
93
118
133
156
163
165
176
198
222
242
243
243
243
241
240
238
236
232
228
225
19
17
16
17
19
24
30
37
45
57
69
71
64
70
65
73
69
73
74
75
79
82
90
109
129
147
163
165
167
184
204
233
244
245
243
242
241
238
236
233
229
224
13
11
9
10
13
17
24
31
40
51
63
68
65
69
65
77
74
73
82
77
80
82
86
105
123
141
163
165
165
172
192
211
238
245
243
242
241
239
237
233
229
224
9
6
5
6
8
13
19
27
35
47
58
65
65
67
67
76
80
76
86
79
80
82
86
105
113
133
161
164
165
167
179
202
219
240
244
243
242
239
237
233
228
221
6
3
1
2
5
10
16
23
32
43
54
64
65
66
70
75
80
83
87
86
80
82
85
100
109
126
160
163
165
165
168
192
202
221
238
242
241
238
236
231
226
221
5
2
0
1
4
9
14
22
29
41
52
64
66
67
70
74
79
87
96
89
84
81
85
93
107
114
153
162
164
165
165
171
194
204
223
236
238
236
233
229
224
220
5
3
2
2
5
9
14
21
29
40
51
63
66
70
73
73
79
86
101
94
89
83
84
87
104
109
141
162
163
164
165
165
176
196
203
225
237
234
232
228
224
219
7
5
4
4
7
10
15
21
29
39
51
63
71
72
70
74
79
84
101
104
94
89
84
87
99
107
123
156
162
162
163
165
165
178
195
203
227
233
229
226
222
218
8
7
7
7
9
12
17
23
30
39
52
64
74
74
75
69
79
84
100
106
99
94
86
85
90
106
115
142
157
161
161
162
163
165
178
193
205
226
228
224
221
214
10
9
8
9
11
14
18
24
31
40
53
64
76
79
81
71
79
84
94
108
107
99
94
86
86
100
111
129
144
157
161
161
162
162
161
180
191
203
220
222
218
213
11
10
9
11
12
15
20
24
33
42
54
65
76
84
84
79
78
84
94
103
110
105
98
93
85
91
103
126
131
143
155
156
160
160
160
160
176
187
203
216
214
210
10
9
10
11
13
16
20
25
34
43
54
66
78
87
87
88
75
84
90
103
109
111
101
93
82
74
84
108
121
127
143
154
156
157
156
156
158
174
181
197
209
208
11
9
9
11
13
16
20
25
34
43
54
67
77
88
90
93
79
86
90
100
105
110
101
85
80
71
73
92
105
113
125
137
150
153
153
153
151
153
165
173
191
202
9
8
8
10
12
14
20
24
33
43
53
66
77
88
94
95
88
82
89
98
102
97
94
89
79
77
70
81
100
101
109
121
131
145
150
149
148
146
147
159
170
180
6
6
7
8
11
14
18
23
30
41
52
61
77
87
95
98
90
87
88
94
98
90
86
91
87
78
74
72
92
97
98
108
118
121
131
140
144
143
142
140
149
159
4
4
4
6
8
12
16
21
28
38
49
59
72
84
95
97
94
89
86
85
93
85
85
85
85
84
74
72
78
92
94
95
109
114
118
119
123
128
133
136
135
140
3
2
2
4
6
10
14
20
26
34
45
57
68
81
94
98
93
85
91
87
83
84
83
83
83
82
79
72
68
78
89
91
95
107
111
114
113
113
113
113
117
115
1
0
1
2
5
8
13
18
25
32
41
54
63
75
88
99
97
86
87
90
79
74
81
80
80
80
79
73
68
67
73
83
85
90
100
105
108
109
110
112
107
102
2
0
1
2
5
7
12
15
21
29
37
48
59
68
81
91
97
83
81
85
83
71
70
74
77
78
78
76
68
64
63
68
78
81
84
93
100
104
104
100
98
97
2
2
3
3
5
7
10
14
19
26
34
42
52
61
72
84
94
91
77
79
80
72
70
67
68
70
71
75
73
66
62
62
63
74
80
81
83
89
94
94
94
94
5
3
4
4
5
7
10
14
17
22
29
36
45
55
64
73
84
89
78
71
74
72
65
65
65
65
65
65
67
65
61
57
55
58
61
67
73
78
84
93
94
94
6
4
5
5
5
7
8
10
14
19
24
30
38
46
56
65
72
83
82
69
67
67
61
60
61
62
61
61
61
63
62
57
55
51
54
57
60
61
63
70
75
79
6
5
5
5
6
6
7
9
12
16
19
25
32
39
46
56
64
70
77
73
60
62
60
54
51
55
54
57
58
58
60
60
57
53
52
50
55
59
61
61
61
59
6
5
4
5
3
4
5
6
8
12
15
19
24
31
37
46
54
61
67
72
65
55
55
51
46
45
46
46
46
48
51
54
56
55
52
48
44
44
48
49
53
54
5
4
3
2
3
2
3
4
5
7
10
14
18
24
30
38
45
53
59
63
63
53
47
46
43
38
37
38
38
38
37
39
41
45
46
45
42
39
42
46
50
53
4
3
2
2
2
1
2
2
3
4
6
8
13
18
24
31
38
44
50
54
56
53
42
37
36
34
31
31
32
34
36
38
39
41
45
47
46
44
41
42
44
48
3
3
1
1
0
1
1
1
1
2
4
6
9
13
18
24
31
32
36
37
38
40
41
34
29
28
26
26
26
28
31
35
40
43
46
46
47
48
46
44
41
42
3
1
0
0
1
1
1
1
0
1
2
3
6
9
14
20
17
16
12
12
12
20
23
32
27
22
22
21
21
22
26
29
34
38
45
49
53
55
57
55
52
49
2
0
1
1
0
0
0
0
0
1
2
2
4
7
10
10
7
8
10
10
10
10
9
18
23
19
17
16
18
21
22
25
30
34
41
46
51
56
59
64
64
62
1
1
0
0
0
0
0
0
0
0
1
2
3
6
9
4
6
7
8
8
8
8
7
7
11
15
12
12
14
16
20
23
25
30
37
41
48
53
58
60
59
57
1
0
0
0
0
0
0
0
0
0
1
1
3
4
4
4
5
7
7
8
7
7
6
5
6
9
9
8
10
14
17
22
26
31
34
41
46
51
56
55
53
54
1
0
0
0
0
0
0
0
0
0
0
2
2
4
2
3
5
6
7
7
7
6
5
4
2
5
4
5
8
12
17
22
28
34
38
42
45
49
52
51
50
54
1
0
0
0
0
0
0
0
0
0
0
2
1
4
2
3
5
6
7
7
6
6
5
3
2
2
1
2
5
11
16
21
28
36
45
52
56
61
54
53
54
55
1
0
0
0
0
0
0
0
0
0
1
0
2
4
3
3
5
6
7
7
6
6
5
3
3
3
1
2
5
11
18
24
30
36
45
53
63
70
68
65
68
70
2
0
0
0
0
0
0
0
0
1
1
1
3
5
6
4
5
7
7
7
7
6
5
3
6
5
4
5
9
13
19
26
35
41
46
53
61
68
68
66
70
74
