P2
# CREATOR: GIMP PNM Filter Version 1.1
42 42
255
87
86
90
89
95
96
100
104
108
114
118
122
129
132
134
142
144
147
164
169
169
172
177
187
190
192
195
198
200
201
203
203
201
201
199
196
193
192
189
183
176
171
79
80
81
83
86
87
94
96
101
108
112
120
124
128
135
140
142
154
168
168
171
183
189
191
195
198
202
204
209
209
211
211
210
210
206
207
201
197
193
190
185
176
70
73
72
75
77
80
85
89
96
102
107
115
120
124
133
137
141
166
166
169
177
188
191
196
200
204
209
213
215
216
218
218
217
216
214
212
209
205
199
194
190
183
62
63
62
64
66
71
76
80
89
94
102
109
115
122
131
134
150
161
165
173
184
190
195
200
206
210
215
218
221
222
224
224
224
221
221
217
212
210
206
200
192
189
52
52
52
54
55
61
65
71
81
87
96
104
109
121
126
132
154
160
166
177
189
195
199
205
213
217
221
224
225
227
226
227
227
226
225
223
219
215
210
206
198
191
43
42
42
42
45
50
55
64
71
79
89
97
105
116
122
135
153
158
166
181
191
196
202
208
217
221
224
227
228
229
232
232
229
230
228
225
224
219
212
209
202
193
34
32
32
34
36
40
45
53
61
71
83
91
102
112
119
137
151
157
171
182
191
199
206
215
220
224
227
229
231
232
234
234
232
232
232
229
225
223
217
212
207
197
26
24
24
25
27
32
37
45
52
64
75
85
98
108
114
140
147
157
170
185
193
198
210
217
223
226
228
233
232
235
234
236
234
233
233
231
228
225
221
214
207
202
19
17
16
17
19
24
30
37
45
57
69
80
92
104
116
138
145
157
172
183
192
203
212
219
223
228
231
233
236
237
238
237
237
237
233
232
230
226
221
216
210
203
13
11
9
10
13
17
24
31
40
51
63
75
88
100
112
137
144
155
175
185
194
202
214
219
224
229
232
234
236
238
237
239
238
237
234
232
230
227
224
217
210
204
9
6
5
6
8
13
19
27
35
47
58
70
85
98
110
134
143
154
174
184
194
203
213
222
224
230
232
235
237
238
240
240
239
237
236
234
232
227
224
218
211
205
6
3
1
2
5
10
16
23
32
43
54
67
82
95
108
133
141
154
173
184
194
203
214
222
224
230
232
234
237
238
240
240
237
238
234
234
232
226
224
218
212
206
5
2
0
1
4
9
14
22
29
41
52
65
80
93
106
131
140
153
171
182
194
201
212
219
224
228
232
233
236
238
238
238
238
237
235
232
230
227
222
216
210
204
5
3
2
2
5
9
14
21
29
40
51
63
78
92
106
128
139
152
168
181
190
202
210
219
223
226
229
233
234
236
237
237
236
236
232
231
228
225
221
215
210
203
7
5
4
4
7
10
15
21
29
39
51
63
77
90
100
129
139
149
165
182
191
198
207
216
221
224
228
231
233
233
234
235
234
233
233
230
226
224
218
213
207
201
8
7
7
7
9
12
17
23
30
39
52
64
77
91
101
117
139
149
166
177
186
196
205
212
219
223
226
228
229
232
232
232
231
231
230
227
224
221
215
210
205
196
10
9
8
9
11
14
18
24
31
40
53
64
76
91
102
114
140
147
157
178
185
193
200
207
215
219
223
224
226
228
230
230
229
229
225
224
221
217
210
207
201
193
11
10
9
11
12
15
20
24
33
42
54
65
76
91
102
113
135
148
158
167
185
191
198
203
210
215
219
221
223
224
224
224
224
223
223
220
216
212
209
203
196
190
10
9
10
11
13
16
20
25
34
43
54
66
78
89
103
113
127
148
155
166
179
190
193
199
203
208
212
216
219
219
222
222
219
219
217
214
211
208
203
197
191
186
11
9
9
11
13
16
20
25
34
43
54
67
77
89
103
113
121
149
157
163
170
185
189
193
198
200
207
209
211
214
215
215
214
212
210
209
205
203
195
191
189
180
9
8
8
10
12
14
20
24
33
43
53
66
77
88
102
114
123
133
157
162
167
175
186
189
191
193
196
200
204
206
207
207
208
208
204
201
198
195
190
188
184
174
6
6
7
8
11
14
18
23
30
41
52
61
77
87
98
115
123
130
148
162
166
168
169
181
186
187
188
193
192
197
197
197
197
196
196
194
193
190
186
179
173
171
4
4
4
6
8
12
16
21
28
38
49
59
72
84
96
108
121
129
134
148
164
164
165
168
169
181
178
185
185
186
189
189
190
188
190
187
186
182
177
174
170
169
3
2
2
4
6
10
14
20
26
34
45
57
68
81
94
102
116
125
133
137
152
162
161
159
161
161
171
171
173
177
179
181
182
180
178
180
174
173
172
169
169
166
1
0
1
2
5
8
13
18
25
32
41
54
63
75
88
99
108
119
127
133
134
140
155
154
153
153
154
155
159
161
161
165
166
168
167
166
166
167
167
170
161
152
2
0
1
2
5
7
12
15
21
29
37
48
59
68
81
91
101
108
118
124
128
129
128
137
144
148
146
146
147
148
150
152
154
155
158
161
163
163
161
151
150
150
2
2
3
3
5
7
10
14
19
26
34
42
52
61
72
84
94
103
108
115
121
123
122
122
122
127
130
142
140
141
143
146
148
150
156
152
149
146
149
148
147
147
5
3
4
4
5
7
10
14
17
22
29
36
45
55
64
73
84
92
99
104
109
114
114
114
114
112
114
113
120
122
125
127
130
134
131
135
139
141
142
144
145
147
6
4
5
5
5
7
8
10
14
19
24
30
38
46
56
65
72
83
89
94
98
100
102
105
104
104
104
104
105
109
110
113
117
121
125
129
132
136
139
142
144
145
6
5
5
5
6
6
7
9
12
16
19
25
32
39
46
56
64
70
78
85
88
91
90
91
91
93
94
95
96
98
102
106
110
114
119
123
129
132
136
138
138
139
6
5
4
5
3
4
5
6
8
12
15
19
24
31
37
46
54
61
67
73
79
80
80
79
79
78
79
81
85
87
92
96
102
108
113
118
122
124
127
132
135
137
5
4
3
2
3
2
3
4
5
7
10
14
18
24
30
38
45
53
59
63
66
68
68
68
67
65
65
66
69
73
77
83
88
94
101
107
113
119
124
129
133
135
4
3
2
2
2
1
2
2
3
4
6
8
13
18
24
31
38
44
50
54
56
57
55
54
54
53
53
54
57
61
65
72
79
87
95
101
109
115
121
126
127
129
3
3
1
1
0
1
1
1
1
2
4
6
9
13
18
24
31
37
42
45
46
47
46
43
42
41
41
43
46
50
56
62
71
78
87
94
102
109
114
119
124
128
3
1
0
0
1
1
1
1
0
1
2
3
6
9
14
20
24
31
37
37
37
37
35
35
33
31
31
32
35
39
45
51
59
68
79
87
95
103
110
116
121
126
2
0
1
1
0
0
0
0
0
1
2
2
4
7
10
16
21
26
30
32
33
31
28
27
24
22
23
23
26
31
37
43
52
61
72
82
91
99
104
112
116
120
1
1
0
0
0
0
0
0
0
0
1
2
3
6
10
13
18
23
26
27
27
26
23
20
17
16
14
15
19
23
29
36
44
53
65
74
84
93
101
108
114
119
1
0
0
0
0
0
0
0
0
0
1
1
3
4
7
12
16
20
23
25
23
22
19
15
12
9
9
9
12
18
23
31
39
50
60
71
81
91
100
105
111
115
1
0
0
0
0
0
0
0
0
0
0
2
2
4
7
11
15
19
21
21
22
19
16
12
8
5
4
5
9
14
20
27
37
47
58
69
78
86
94
101
108
114
1
0
0
0
0
0
0
0
0
0
0
2
1
4
7
11
14
18
20
21
19
17
14
10
6
2
1
2
5
11
18
25
34
43
54
64
75
86
93
101
107
111
1
0
0
0
0
0
0
0
0
0
1
0
2
4
7
11
15
18
20
20
19
18
14
10
6
3
1
2
5
11
18
25
34
43
54
64
76
84
91
97
103
109
2
0
0
0
0
0
0
0
0
1
1
1
3
5
8
12
16
20
21
22
21
18
15
11
7
5
4
5
9
13
19
26
35
43
53
64
74
82
90
97
103
107
