P2
# CREATOR: GIMP PNM Filter Version 1.1
64 64
255
88
88
88
92
91
91
95
97
98
99
104
106
108
110
116
118
120
122
129
131
133
134
136
143
144
146
147
148
168
169
169
169
171
173
177
185
187
190
192
193
195
197
199
199
200
200
202
202
202
200
201
198
199
197
195
193
192
191
189
185
182
175
175
170
84
83
84
86
86
87
91
91
93
96
99
101
103
109
111
114
117
122
126
128
131
132
137
141
143
144
146
167
169
169
169
171
173
184
185
190
192
193
194
198
199
200
202
205
206
207
208
208
209
209
208
207
203
202
198
198
196
194
192
191
186
187
176
175
79
78
80
80
80
83
85
86
87
93
94
96
98
104
108
110
113
120
122
125
128
131
139
140
142
143
154
167
168
168
171
173
184
185
191
191
193
197
198
201
204
205
207
211
211
211
213
212
212
211
211
211
208
209
208
203
199
198
194
192
191
186
187
175
73
72
76
74
75
78
79
80
82
87
88
92
96
101
104
106
111
117
120
122
125
131
136
138
141
143
164
166
167
168
173
177
185
191
191
194
198
200
202
205
208
211
213
214
215
217
217
217
217
217
216
214
214
211
211
209
206
203
198
196
192
191
186
182
67
67
69
68
68
72
72
74
77
81
83
86
92
95
99
102
108
113
116
120
122
131
134
137
139
149
164
165
167
172
173
184
191
191
194
197
200
204
206
210
213
215
217
219
219
219
222
222
222
219
219
219
217
217
214
211
209
208
204
198
196
192
191
185
61
62
62
62
62
64
65
67
71
74
77
80
87
91
94
97
106
109
113
116
122
128
132
134
137
159
161
163
167
171
183
186
190
193
197
200
204
208
210
213
217
219
220
222
222
225
225
225
225
225
222
222
222
219
217
213
211
211
208
205
199
194
192
189
55
55
55
55
55
57
58
60
65
67
70
74
81
85
89
95
100
106
109
113
121
126
129
133
143
159
161
163
169
173
183
190
194
198
200
204
207
213
216
218
221
222
225
225
226
226
226
226
226
226
225
225
225
222
222
219
217
213
211
208
205
198
194
191
48
50
48
47
49
50
51
52
57
60
64
69
75
80
84
92
97
101
105
110
120
123
127
129
152
156
159
163
168
180
189
190
193
198
201
205
210
216
218
221
224
225
226
227
229
229
229
230
229
229
229
228
226
225
225
222
219
217
211
209
205
202
195
192
43
43
42
41
43
42
44
47
50
53
57
64
68
74
79
86
92
97
102
109
116
120
125
134
150
154
157
165
168
179
188
192
196
200
204
207
213
218
221
224
225
226
229
229
230
230
233
233
233
230
230
231
229
226
226
225
222
219
213
211
209
204
199
193
37
37
35
34
36
37
38
41
43
46
50
57
61
67
73
82
88
93
99
107
113
118
123
132
150
153
157
163
175
180
187
192
197
204
207
213
216
221
224
225
227
228
230
231
233
232
234
234
234
232
233
232
232
229
229
226
225
222
217
214
211
208
202
195
32
31
29
29
29
31
32
36
38
41
45
50
56
61
69
77
83
90
95
105
111
116
120
141
147
151
156
163
175
184
189
195
198
203
207
216
218
221
225
225
229
229
233
233
234
233
236
236
236
233
233
233
233
231
229
226
225
222
219
217
211
209
203
199
27
25
24
24
24
25
26
30
32
36
39
46
50
56
64
72
79
85
92
103
108
113
118
139
145
149
157
162
174
184
189
195
198
203
212
216
221
224
225
229
229
233
233
233
236
235
235
238
235
235
235
233
233
233
231
229
226
225
222
217
214
208
205
202
22
20
19
19
19
20
21
24
27
30
36
40
45
51
60
68
75
82
88
99
105
111
122
137
143
148
156
169
175
183
188
193
202
206
213
218
221
224
228
229
231
233
233
236
236
237
237
237
237
237
237
236
233
233
232
231
228
225
222
219
214
211
208
202
18
16
15
14
14
15
17
19
22
26
31
36
42
47
56
63
71
78
86
96
102
109
120
137
142
147
155
168
174
181
190
196
202
206
216
218
221
225
228
229
232
234
234
236
238
238
239
239
239
238
238
237
235
233
233
231
229
226
222
219
216
211
209
203
14
12
11
10
10
11
13
15
18
22
27
32
38
43
52
59
67
75
83
93
100
107
118
136
141
147
154
167
179
184
190
196
202
205
216
218
224
225
229
229
233
233
236
237
238
239
238
240
238
239
238
237
235
233
232
231
230
226
225
219
217
211
209
203
11
9
7
7
7
8
9
12
15
19
23
29
35
40
49
56
64
72
81
91
99
105
117
134
140
146
153
168
177
183
190
196
202
210
215
221
224
225
229
232
233
235
235
238
239
238
241
240
241
238
239
237
235
236
234
233
230
226
225
222
217
212
209
205
9
7
5
4
4
5
7
9
13
16
21
26
31
38
46
53
61
69
79
89
97
104
115
133
138
145
152
167
177
183
190
196
201
210
215
221
224
225
229
232
233
235
237
237
239
239
240
240
240
240
239
237
238
236
234
233
231
226
225
222
217
212
209
205
7
5
3
2
2
3
5
7
11
15
19
24
30
35
44
51
59
67
77
87
95
102
114
132
138
144
152
166
176
183
190
196
201
211
215
221
224
225
229
232
233
235
235
238
239
238
241
240
241
238
239
237
235
236
234
233
229
226
225
222
217
213
209
206
6
4
2
1
1
2
4
7
10
13
17
23
28
34
42
49
57
65
75
85
94
101
113
131
137
144
151
165
177
183
190
196
201
205
215
218
224
225
229
229
233
233
236
237
238
239
238
239
238
239
238
237
235
233
232
231
229
226
225
219
217
211
209
203
6
4
2
1
1
2
4
6
10
13
17
22
27
33
41
48
56
65
74
85
92
100
112
130
136
143
151
165
171
180
187
196
201
205
213
218
221
225
228
229
232
233
235
236
238
238
239
239
239
238
238
236
236
234
233
231
229
226
222
219
215
211
208
203
6
5
3
2
2
3
5
7
10
13
17
22
27
33
41
48
55
63
72
84
92
99
112
127
136
142
151
160
172
180
186
192
202
205
212
218
221
224
226
229
230
233
233
235
236
237
238
237
238
237
236
236
233
233
231
229
227
225
222
219
214
211
208
202
7
6
4
4
4
4
6
8
11
14
18
22
27
33
40
48
55
63
72
83
91
99
104
128
135
142
150
157
170
180
186
193
197
202
212
216
220
224
225
228
229
232
233
233
235
236
235
237
235
236
234
233
233
233
231
229
226
225
220
217
213
208
205
202
8
7
6
5
5
6
7
9
11
15
18
22
27
33
40
47
55
63
71
82
90
98
105
127
135
141
148
157
169
181
186
193
198
202
207
215
218
221
224
225
229
229
232
233
233
233
235
235
235
233
234
233
233
230
229
226
225
222
219
215
211
208
203
200
9
8
7
7
7
8
9
10
13
16
19
24
28
33
40
48
56
64
71
83
91
98
105
116
135
141
148
156
171
176
184
188
195
201
207
212
216
220
223
225
227
229
229
230
232
233
233
233
233
232
232
232
231
229
227
225
224
221
217
213
210
207
202
196
10
9
9
8
8
9
10
12
14
17
20
24
29
34
40
49
56
64
72
81
91
98
105
115
135
141
147
156
161
175
184
189
196
199
204
208
212
218
220
223
225
225
228
229
229
230
232
232
232
231
231
230
228
225
225
224
221
218
213
211
209
203
200
193
11
10
10
9
10
10
11
13
15
18
21
25
30
35
41
50
57
65
72
80
91
99
105
111
136
141
147
152
160
176
182
186
191
196
200
205
210
215
218
220
223
224
225
226
228
229
229
229
229
229
228
228
225
225
224
221
218
216
211
208
205
202
195
192
11
11
10
9
11
11
12
14
16
19
22
25
31
36
42
50
58
65
73
80
91
99
105
113
122
142
148
153
161
166
179
188
191
195
200
203
206
212
215
218
220
221
224
224
225
225
225
225
225
225
225
224
224
221
221
218
216
212
210
207
203
198
193
190
12
10
10
11
11
12
13
14
17
19
22
26
31
37
43
50
59
66
73
80
90
99
106
112
118
143
147
152
158
165
177
182
189
193
197
200
203
207
210
212
216
218
220
221
221
224
224
224
224
224
221
221
221
218
217
213
211
210
207
203
199
194
192
187
11
10
10
10
10
12
13
14
17
20
22
26
32
38
44
51
59
67
74
82
88
100
106
113
119
129
148
153
157
165
169
182
189
190
193
198
200
203
205
210
212
214
216
218
218
218
221
221
221
218
218
218
216
216
212
211
208
207
203
199
195
191
190
185
12
10
10
10
10
12
13
15
17
20
23
26
31
38
44
51
59
67
74
81
89
99
106
113
120
124
150
154
159
162
169
172
184
190
190
193
197
200
200
204
209
210
212
212
214
216
216
216
216
216
216
212
212
210
210
207
204
204
197
194
191
191
185
180
10
9
9
10
9
11
13
14
16
19
21
26
31
38
44
50
56
67
75
82
89
97
107
113
120
125
134
153
158
162
166
172
182
186
190
190
194
195
196
199
202
204
206
209
210
210
213
212
212
210
210
210
207
207
207
204
199
198
193
191
191
185
186
175
9
8
8
8
9
10
12
13
15
19
22
25
30
37
43
50
57
66
73
81
88
96
106
114
120
125
130
154
158
162
165
167
171
182
185
189
189
191
191
196
195
199
198
203
204
207
206
206
206
207
207
207
204
202
198
197
194
194
190
191
185
186
175
174
8
8
7
8
8
9
11
13
15
17
21
24
29
34
42
48
57
62
73
81
87
94
103
115
120
125
130
134
159
161
165
167
168
173
171
184
183
188
187
191
190
195
195
194
199
199
199
199
199
199
201
196
198
198
194
194
191
191
187
185
179
175
174
171
0
5
6
6
6
8
9
11
14
16
20
23
28
33
41
47
54
62
71
79
86
93
100
110
119
126
129
133
140
163
163
167
166
167
171
170
180
181
184
186
185
189
189
189
190
193
194
194
195
196
195
192
193
193
190
191
191
185
186
176
176
175
170
170
5
4
4
4
5
6
8
10
13
15
18
22
26
32
38
46
53
59
66
77
84
92
99
107
116
123
129
132
136
141
163
163
164
165
165
167
167
168
179
177
178
183
184
184
184
187
188
188
189
189
187
188
189
190
185
185
186
178
176
176
173
170
170
169
4
3
3
3
4
5
6
9
11
14
17
21
25
29
35
44
50
58
65
73
82
91
98
103
110
122
125
132
135
139
139
163
161
163
162
161
161
164
164
166
176
175
175
176
177
181
182
183
184
184
180
182
182
183
184
176
175
175
175
170
170
169
169
170
2
2
1
1
2
4
6
8
10
13
15
20
24
28
34
39
48
55
63
70
79
87
94
100
107
114
124
127
132
134
137
139
161
159
158
158
157
157
157
160
161
162
165
168
173
174
174
175
176
177
178
179
172
172
172
174
172
170
168
169
169
169
172
153
2
1
1
2
2
3
5
7
9
12
15
18
23
27
32
38
45
54
59
66
74
84
91
98
104
110
117
125
128
132
134
134
136
143
156
154
154
153
153
153
153
154
155
158
159
160
160
163
164
165
167
166
167
164
167
166
166
168
168
168
170
162
152
152
3
1
1
1
2
3
5
6
8
11
14
16
20
25
30
35
41
49
57
63
70
78
87
93
99
106
110
116
124
125
129
130
131
132
132
140
151
149
149
148
148
148
149
149
149
152
153
154
155
156
157
158
160
161
163
164
165
166
168
159
152
151
153
151
3
2
1
2
2
3
5
7
8
10
14
16
19
23
28
33
39
46
53
59
65
72
80
88
95
100
105
110
115
123
124
127
127
128
128
128
128
135
145
144
144
144
144
145
145
147
147
149
150
152
153
155
157
159
161
162
164
155
150
150
151
151
149
148
3
3
3
3
4
4
5
7
8
10
12
15
18
22
26
31
37
42
49
55
61
68
74
83
89
96
102
105
109
113
120
121
123
123
122
122
122
122
124
129
129
140
140
140
140
142
143
145
146
148
149
151
155
156
148
149
144
147
149
149
148
147
147
148
5
4
3
4
4
4
5
7
8
10
12
15
17
20
23
29
33
38
43
51
57
63
69
75
84
90
95
99
103
106
109
114
118
118
117
117
116
117
115
116
118
117
119
127
128
128
130
132
134
136
138
140
134
136
139
142
143
143
143
144
145
146
147
147
6
5
5
4
5
5
6
7
8
8
11
13
15
18
21
25
30
35
40
45
52
58
63
70
75
82
88
94
97
101
103
105
107
112
111
111
111
111
110
110
111
111
111
113
115
116
119
120
122
124
127
129
131
133
134
135
137
139
141
143
144
145
147
147
7
5
5
5
6
5
6
6
8
9
9
11
13
16
19
22
27
30
36
40
46
53
58
64
69
74
82
87
90
93
97
98
100
100
103
105
105
104
104
103
104
104
105
105
108
109
110
112
115
117
120
122
125
128
130
132
134
137
139
141
143
144
146
145
6
6
5
5
6
5
6
7
7
8
9
10
12
15
17
20
23
28
32
36
41
45
53
58
63
69
73
77
85
87
91
92
94
94
94
95
96
97
97
97
98
98
99
100
101
103
105
107
110
113
115
118
121
124
127
130
132
134
137
139
142
141
140
140
7
6
6
6
5
5
6
5
5
6
7
8
10
12
15
17
19
23
28
31
36
41
45
53
58
63
67
71
75
81
84
85
87
87
87
87
87
86
88
89
90
91
91
92
94
96
99
102
104
107
110
114
117
120
123
127
129
133
134
135
134
136
138
139
7
6
5
4
5
5
4
4
5
5
6
7
8
10
12
14
16
19
22
27
31
35
40
46
51
56
61
64
69
73
76
80
80
81
80
80
79
79
78
78
79
80
83
85
86
89
92
95
98
102
106
110
113
115
120
122
123
125
127
130
133
135
136
138
6
5
4
4
4
3
4
4
4
4
4
5
6
7
9
12
13
15
19
22
27
30
35
40
44
51
56
60
63
66
68
70
73
72
73
73
72
71
70
70
70
70
72
74
76
79
81
84
89
92
96
99
104
107
111
115
119
122
125
128
131
133
135
137
6
4
4
3
4
3
3
3
2
3
3
4
4
5
6
8
10
13
15
18
22
26
31
36
40
45
49
54
58
60
62
64
64
64
64
64
63
63
61
62
62
63
64
66
68
71
74
78
82
86
90
95
99
104
107
112
116
120
123
126
129
132
134
135
5
4
3
3
2
3
3
2
2
3
2
3
3
4
5
6
8
9
12
15
18
22
26
31
35
40
44
47
52
54
56
57
58
57
55
55
54
55
54
54
54
54
56
58
60
64
66
71
75
80
85
90
95
99
104
109
113
117
121
124
127
128
128
130
4
3
3
2
2
1
1
1
2
2
2
2
2
3
3
4
6
7
10
12
15
19
22
26
31
35
39
43
45
48
50
51
50
50
49
47
47
46
46
45
47
48
49
51
53
56
60
64
69
74
80
85
90
95
100
105
110
115
117
118
121
124
127
129
4
3
3
2
2
1
1
1
1
1
1
1
1
2
2
3
4
6
7
10
12
15
19
22
26
32
35
38
42
43
43
44
45
44
43
41
40
40
39
38
38
39
41
43
45
49
53
57
63
69
73
78
84
89
93
99
103
108
112
116
120
123
126
128
4
2
2
1
1
1
1
2
2
2
1
1
1
1
2
3
3
4
5
8
9
13
16
20
23
26
31
36
38
38
38
38
38
37
36
36
35
34
32
31
32
32
34
36
39
42
46
50
55
60
66
72
79
84
90
95
100
105
110
114
118
121
125
127
3
2
1
1
1
1
2
0
1
1
2
2
1
1
1
3
3
3
4
6
8
10
14
17
20
24
28
31
34
35
36
35
35
33
31
30
29
28
26
27
27
27
28
30
33
36
40
44
49
55
61
68
75
80
86
92
98
103
108
112
117
118
120
122
2
1
1
2
1
1
0
1
0
0
0
0
0
1
2
1
2
2
4
5
7
9
11
15
19
22
25
28
30
31
31
32
30
29
27
26
24
22
21
20
21
21
23
25
28
31
36
40
45
51
56
63
70
78
83
90
96
100
102
107
111
115
118
121
1
1
2
0
0
0
0
0
0
0
0
0
1
0
0
2
1
2
3
4
6
9
11
13
17
20
23
26
27
28
28
28
27
26
23
22
20
18
17
16
15
16
17
20
23
26
30
35
39
45
51
57
65
71
78
84
90
96
101
105
110
114
118
120
2
2
0
1
0
0
0
0
0
0
0
0
0
0
1
1
2
2
3
3
5
7
10
12
15
18
21
24
25
26
26
25
24
22
20
18
16
14
13
12
11
12
13
15
19
23
26
31
36
41
48
55
62
69
76
82
89
94
99
104
109
113
117
117
2
1
0
0
0
0
0
0
0
0
0
0
0
0
0
1
1
1
2
4
4
6
8
12
14
17
19
22
24
25
24
23
22
20
18
15
13
11
9
8
8
8
10
12
16
19
23
29
33
39
46
52
59
67
74
80
86
93
99
103
105
109
112
115
2
1
0
0
0
0
0
0
0
0
0
0
0
0
0
0
0
2
2
3
4
6
8
11
14
16
19
20
22
22
23
22
20
18
16
13
11
8
6
5
5
5
7
10
13
17
21
26
31
38
44
51
58
66
72
78
84
89
94
99
103
108
111
115
2
1
0
0
0
0
0
0
0
0
0
0
0
0
0
0
0
2
2
2
4
6
8
11
13
16
19
20
22
21
22
20
19
17
15
12
9
6
4
3
2
3
5
7
11
14
19
23
29
34
41
47
54
61
68
75
82
88
93
98
103
107
111
115
2
1
0
0
0
0
0
0
0
0
0
0
0
0
0
0
0
2
2
2
4
6
8
11
13
15
18
20
21
22
20
19
17
16
14
11
8
6
3
2
1
2
4
6
10
14
18
23
28
34
40
47
54
60
68
75
82
88
93
98
103
106
108
111
2
1
1
0
0
0
0
0
0
0
0
0
0
0
0
1
1
1
2
3
4
6
8
11
14
16
18
20
21
21
21
19
19
16
14
11
8
6
4
2
1
2
4
6
10
14
18
23
28
34
40
47
54
60
68
76
81
87
91
95
99
103
106
110
2
2
0
0
0
0
0
0
0
0
0
0
0
0
1
0
2
1
3
3
5
7
9
11
15
16
19
20
21
21
21
20
19
17
14
12
9
6
4
3
2
3
5
7
11
14
19
23
29
35
40
46
53
60
67
73
79
84
90
94
99
103
106
110
3
1
1
0
0
0
0
0
0
0
0
0
0
0
1
2
1
2
3
4
6
8
9
12
15
17
20
21
22
23
22
21
19
17
15
13
10
8
6
5
5
6
7
10
12
16
20
24
30
35
40
46
53
60
67
74
80
85
90
95
99
103
106
107