P2
# CREATOR: GIMP PNM Filter Version 1.1
42 42
255
3
3
3
3
3
3
3
3
3
3
3
3
3
3
3
3
3
3
3
3
3
3
3
3
3
3
3
3
3
3
3
3
3
3
3
3
3
3
3
3
3
3
3
3
3
3
27
34
43
43
41
30
23
3
3
3
3
3
3
3
3
3
3
3
3
3
3
3
3
3
3
7
5
3
7
23
17
12
3
3
3
3
3
3
3
3
3
30
43
44
49
59
71
86
89
81
66
56
46
39
31
34
89
89
84
82
96
82
116
130
139
140
142
148
144
142
124
109
87
70
46
26
3
3
3
3
3
3
12
41
47
58
74
99
116
124
131
136
124
116
129
141
151
156
161
161
161
162
164
163
163
162
161
162
162
157
156
159
157
157
146
129
106
73
26
3
3
3
3
3
27
42
66
91
116
131
136
138
145
151
161
170
170
170
170
170
170
170
168
169
167
166
166
166
175
195
195
195
195
195
195
195
166
166
166
161
71
9
3
3
3
3
38
56
88
112
132
140
144
155
170
161
170
169
169
169
170
170
169
170
170
170
169
168
166
195
195
210
214
218
221
223
224
224
195
195
166
166
116
49
3
3
3
3
49
72
100
135
148
156
164
160
168
169
170
170
170
170
170
170
170
170
170
168
170
171
195
195
208
214
219
223
227
229
230
230
228
195
195
159
166
80
3
3
3
5
59
90
116
142
158
168
160
168
170
170
170
170
170
170
170
170
170
170
170
170
170
179
195
205
211
217
223
228
232
236
237
236
233
229
195
153
166
104
3
3
3
31
79
101
119
149
167
160
167
170
170
170
170
170
170
170
170
170
170
170
170
170
170
195
201
207
213
220
226
231
237
241
244
243
238
233
195
195
157
106
3
3
3
43
77
96
120
151
158
165
169
170
170
170
170
170
170
170
170
170
170
170
170
170
170
195
202
208
215
222
227
234
240
246
250
248
242
236
230
195
151
98
3
3
3
56
79
86
114
159
162
165
168
167
167
167
168
170
170
170
170
170
170
170
170
170
170
195
202
209
215
222
228
234
241
247
253
249
243
237
230
195
157
85
3
3
3
3
76
81
107
161
163
166
166
166
166
166
166
166
170
170
170
170
170
170
170
170
170
195
202
208
215
221
227
233
239
244
247
245
241
235
229
195
162
70
3
3
3
3
71
79
119
160
166
166
166
166
166
166
166
166
166
170
170
170
170
170
170
170
170
195
200
206
213
219
225
230
235
238
241
240
236
232
227
195
162
58
3
3
3
39
59
77
141
165
166
166
166
166
166
166
166
166
166
166
169
170
170
170
170
170
170
195
199
204
210
216
221
226
230
233
234
234
231
227
223
195
162
57
3
3
3
32
50
96
149
166
166
166
166
166
166
166
166
166
166
166
166
168
170
170
170
170
170
195
195
201
207
212
217
221
224
227
225
227
226
222
218
195
162
66
3
3
3
27
41
118
150
166
166
166
166
166
166
166
166
166
166
166
166
166
168
170
170
170
170
195
192
198
203
208
212
214
214
214
214
214
214
216
213
195
162
79
3
3
3
9
39
124
152
166
166
166
166
166
166
166
166
166
166
166
166
166
166
167
168
168
170
170
195
194
199
203
207
207
206
206
206
206
206
211
195
166
162
95
3
3
3
3
38
131
154
166
166
166
166
166
166
166
166
166
166
166
166
166
166
166
166
166
167
170
195
201
194
198
200
195
191
192
0
193
195
190
195
166
162
98
3
3
3
3
66
136
155
165
166
166
166
166
166
166
166
166
166
166
166
166
166
166
166
166
166
166
166
195
195
192
195
161
161
161
161
161
161
194
166
166
151
103
3
3
3
3
86
137
155
165
166
166
166
166
166
166
166
166
166
166
166
166
166
166
166
166
166
166
166
166
166
195
194
156
156
156
156
156
156
165
166
166
157
99
3
3
3
3
85
137
155
165
166
166
166
166
166
166
166
166
166
166
166
166
166
166
166
166
166
166
166
166
166
166
162
150
150
150
150
150
150
165
166
166
158
105
3
3
3
3
86
139
155
165
166
166
166
166
166
166
166
166
166
166
166
166
166
166
166
166
166
166
166
166
166
166
163
145
145
145
145
145
145
165
166
166
158
109
3
3
3
3
85
139
155
165
166
166
166
166
166
166
166
166
166
166
166
166
166
166
166
166
166
166
166
166
166
166
163
140
140
140
140
140
140
164
166
166
157
116
3
3
3
3
67
139
155
165
166
166
166
166
166
166
166
166
166
166
166
166
166
166
166
166
166
166
166
166
166
166
162
135
135
135
135
135
135
164
166
166
152
114
3
3
3
3
36
139
155
165
166
166
166
166
166
166
166
166
166
166
166
166
166
166
166
166
166
166
166
166
166
166
160
130
130
130
130
130
130
165
166
166
146
110
3
3
3
3
44
136
153
165
166
166
166
166
166
166
166
166
166
166
166
166
166
166
166
166
166
166
166
166
166
166
156
125
125
125
125
125
125
166
166
166
151
103
3
3
3
3
44
129
150
163
166
166
166
166
166
166
166
166
166
166
166
166
166
166
166
166
166
166
166
166
166
165
151
120
120
120
120
120
120
166
166
166
152
99
3
3
3
3
49
107
149
163
166
166
166
166
166
166
166
166
166
166
166
166
166
166
166
166
166
166
166
166
166
164
115
115
115
115
115
115
162
166
166
164
152
109
3
3
3
3
41
89
149
163
166
166
166
166
166
166
166
166
166
166
166
166
166
166
166
166
166
166
166
166
166
164
110
110
110
110
110
110
163
166
166
161
151
108
3
3
3
3
36
101
146
165
166
166
166
166
166
166
166
166
166
166
166
166
166
166
166
166
166
166
166
166
166
163
105
105
105
105
105
146
164
166
164
161
149
106
3
3
3
3
33
116
146
163
166
166
166
166
166
166
166
166
166
166
166
166
166
166
166
166
166
166
166
166
166
160
99
99
99
99
99
148
162
166
163
161
146
85
3
3
3
3
26
114
145
162
166
166
166
166
166
166
166
166
166
166
166
166
166
166
166
166
166
166
166
166
166
155
94
94
94
94
94
151
166
166
163
158
141
58
3
3
3
3
14
111
144
158
166
166
166
166
166
166
166
166
166
166
166
166
166
166
166
166
166
166
166
166
164
150
89
89
89
89
89
154
166
164
162
153
113
30
3
3
3
3
3
83
138
159
163
166
166
166
166
166
166
166
166
166
166
166
166
166
166
166
166
166
166
166
164
149
84
84
84
84
84
162
164
163
155
124
73
3
3
3
3
3
3
49
131
157
162
162
166
166
166
166
166
166
166
166
166
166
166
166
166
166
166
166
166
166
164
148
79
79
79
79
79
158
159
149
127
79
49
3
3
3
3
3
3
3
67
134
150
151
157
163
165
166
166
166
166
166
166
166
166
166
166
166
166
166
166
166
164
148
74
74
74
74
74
147
137
110
77
53
25
3
3
3
3
3
3
3
17
75
113
137
144
145
150
155
160
161
163
166
166
166
166
165
165
165
165
165
165
164
162
145
69
69
69
69
69
100
90
75
49
34
3
3
3
3
3
3
3
3
3
26
59
69
80
88
95
100
118
133
142
151
159
159
156
154
152
151
151
150
148
146
138
113
64
64
64
64
64
58
58
37
28
3
3
3
3
3
3
3
3
3
3
3
17
44
68
78
81
78
74
65
89
107
119
124
128
128
127
126
126
124
120
109
89
35
59
59
59
59
59
39
34
7
3
3
3
3
3
3
3
3
3
3
3
3
3
3
7
35
46
49
55
56
57
57
45
26
62
56
62
70
76
43
44
38
39
33
59
3
3
3
3
3
3
3
3
3
3
3
3
3
3
3
3
3
3
3
3
3
3
3
3
3
3
3
3
3
3
3
3
3
3
3
3
3
3
3
3
3
3
3
3
3
3
3
3
3
3
3
3
3
3
3
3
3
3
3
3
3
3
3
3
3
3
3
3
3
3
3
3
3
3
3
3
3
3
3
3
3
3
3
3
3
3
3
3
3
3
3
3
3
3
3
3
3
