P2
# CREATOR: GIMP PNM Filter Version 1.1
42 42
255
0
0
0
2
6
12
21
21
19
10
4
0
0
0
0
0
0
0
0
0
0
0
0
0
0
0
0
0
0
0
0
0
0
0
0
0
0
0
0
0
0
0
0
0
2
10
27
34
43
43
41
30
23
4
0
0
0
0
0
0
0
0
0
0
0
0
0
2
4
10
14
17
16
15
17
23
21
19
10
4
0
0
0
0
0
2
10
30
43
44
49
59
71
86
89
81
66
56
46
39
31
34
89
89
84
82
96
82
116
130
139
140
142
148
144
142
124
109
87
70
46
26
4
0
0
0
0
4
19
41
47
58
74
99
116
124
131
136
124
116
129
141
151
156
161
161
161
162
164
163
163
162
161
162
162
157
156
159
157
157
146
129
106
73
26
4
0
0
0
5
27
42
66
91
116
131
136
138
145
151
161
170
157
158
159
159
158
159
168
169
167
166
166
166
175
189
178
195
195
206
194
182
166
166
166
161
71
18
0
0
0
8
38
56
88
112
132
140
144
155
170
161
165
169
169
169
170
170
169
169
166
158
169
168
166
181
186
212
214
215
215
215
211
214
191
166
166
166
116
49
0
0
0
11
49
72
100
135
148
156
164
160
168
169
170
170
170
170
170
170
170
170
170
168
160
171
172
200
214
217
217
217
217
217
217
216
204
198
166
159
166
80
0
0
0
16
59
90
116
142
158
168
160
168
170
170
170
170
170
170
170
170
170
170
170
170
162
179
192
216
217
217
218
218
219
219
218
217
216
210
191
153
166
104
0
0
0
31
79
101
119
149
167
160
167
169
170
170
170
170
170
170
170
170
170
170
170
170
169
172
220
220
217
218
219
219
220
220
220
219
217
214
212
177
157
106
0
0
4
43
77
96
120
151
158
165
169
170
170
170
170
170
170
170
170
170
170
170
170
170
175
188
223
221
218
218
219
219
220
221
221
219
217
217
200
186
151
98
0
0
10
56
79
86
114
159
162
165
169
170
170
170
170
170
170
170
170
170
170
170
170
170
177
216
224
222
219
218
219
219
220
221
220
219
218
217
207
197
157
85
0
0
21
53
76
81
107
161
163
166
169
170
170
170
170
170
170
170
170
170
170
170
170
170
177
218
224
222
220
218
219
219
219
220
220
219
218
217
207
198
162
70
0
0
27
50
71
79
119
157
163
166
169
170
170
170
170
170
170
170
170
170
170
170
170
170
177
218
224
222
220
218
219
219
219
219
219
219
217
217
207
199
162
58
0
0
27
39
59
77
141
157
162
165
169
170
170
170
170
170
170
170
170
170
170
170
170
170
175
195
224
222
219
217
218
218
218
219
218
218
217
217
199
188
162
57
0
0
20
32
50
96
149
161
162
165
169
170
170
170
170
170
170
170
170
170
170
170
170
170
174
175
223
221
218
217
217
218
218
218
217
217
217
214
215
179
162
66
0
0
10
27
41
118
150
168
158
164
167
169
170
170
170
170
170
170
170
170
170
170
170
170
163
182
204
220
217
217
217
217
217
217
217
217
217
198
197
163
162
79
0
0
4
18
39
124
152
166
168
161
164
168
170
170
170
170
170
170
170
170
170
170
170
169
162
170
150
208
217
217
217
217
217
217
217
217
209
204
171
166
162
95
0
0
0
9
38
131
154
165
167
164
160
164
168
169
170
170
170
170
170
170
170
170
169
165
162
172
169
186
194
217
217
217
217
217
214
199
197
171
166
166
162
98
0
0
0
6
66
136
155
165
166
167
168
157
161
165
168
169
169
169
169
169
169
168
162
158
170
168
166
166
182
196
183
196
196
199
201
190
171
166
166
166
151
103
0
0
0
6
86
137
155
165
166
166
166
168
166
159
158
160
161
161
161
161
158
161
170
168
167
166
166
166
166
171
168
167
167
171
171
166
166
166
166
166
157
99
0
0
0
4
85
137
155
165
166
166
166
166
166
166
166
166
167
167
167
167
166
166
166
166
166
166
166
166
166
166
166
166
166
166
166
166
166
166
166
166
158
105
0
0
0
4
86
139
155
165
166
166
166
166
166
166
166
166
166
166
166
166
166
166
166
166
166
166
166
166
166
166
166
166
166
166
166
166
166
166
166
166
158
109
0
0
0
4
85
139
155
165
166
166
166
166
166
166
166
166
166
166
166
166
166
166
166
166
166
166
166
166
166
166
166
166
166
166
166
166
166
166
166
166
157
116
0
0
0
6
67
139
155
165
166
166
166
166
166
166
166
166
166
166
166
166
166
166
166
166
166
166
166
166
166
166
166
166
166
166
166
166
166
166
166
166
152
114
0
0
0
6
36
139
155
165
166
166
166
166
166
166
166
166
166
166
166
166
166
166
166
166
166
166
166
166
166
166
166
166
166
166
166
166
166
166
166
166
146
110
0
0
0
6
44
136
153
165
166
166
166
166
166
166
166
166
166
166
166
166
166
166
166
166
166
166
166
166
166
166
166
166
166
166
166
166
166
166
166
166
151
103
0
0
0
4
44
129
150
163
166
166
166
166
166
166
166
166
166
166
166
166
166
166
166
166
166
166
166
166
166
166
166
166
166
166
166
166
166
166
166
166
152
99
0
0
0
7
49
107
149
163
166
166
166
166
166
166
166
166
166
166
166
166
166
166
166
166
166
166
166
166
166
166
166
166
166
166
166
166
166
166
166
164
152
109
0
0
0
11
41
89
149
163
166
166
166
166
166
166
166
166
166
166
166
166
166
166
166
166
166
166
166
166
166
166
166
166
166
166
166
166
166
166
166
161
151
108
0
0
0
15
36
101
146
165
166
166
166
166
166
166
166
166
166
166
166
166
166
166
166
166
166
166
166
166
166
166
166
166
166
166
166
166
166
166
164
161
149
106
0
0
0
15
33
116
146
163
166
166
166
166
166
166
166
166
166
166
166
166
166
166
166
166
166
166
166
166
166
166
166
166
166
166
166
166
166
166
163
161
146
85
0
0
0
11
26
114
145
162
166
166
166
166
166
166
166
166
166
166
166
166
166
166
166
166
166
166
166
166
166
166
166
166
166
166
166
166
166
166
163
158
141
58
0
0
0
6
20
111
144
158
166
166
166
166
166
166
166
166
166
166
166
166
166
166
166
166
166
166
166
166
166
166
166
166
166
166
166
166
166
164
162
153
113
30
0
0
0
3
11
83
138
159
163
166
166
166
166
166
166
166
166
166
166
166
166
166
166
166
166
166
166
166
166
166
166
166
166
166
166
166
164
163
155
124
73
14
0
0
0
0
3
49
131
157
162
162
166
166
166
166
166
166
166
166
166
166
166
166
166
166
166
166
166
166
166
166
166
166
166
166
164
161
159
149
127
79
49
9
0
0
0
0
0
5
67
134
150
151
157
163
165
166
166
166
166
166
166
166
166
166
166
166
166
166
166
166
166
166
166
166
166
163
156
150
137
110
77
53
25
4
0
0
0
0
0
3
21
75
113
137
144
145
150
155
160
161
163
166
166
166
166
165
165
165
165
165
165
164
164
162
158
156
147
137
128
105
90
75
49
34
13
3
0
0
0
0
0
0
4
26
59
69
80
88
95
100
118
133
142
151
159
159
156
154
152
151
151
150
148
146
139
128
101
75
83
80
67
60
58
37
28
11
3
0
0
0
0
0
0
0
0
4
21
44
68
78
81
78
74
65
89
107
119
124
128
128
127
126
126
124
120
109
89
41
39
46
57
49
52
39
34
17
8
3
0
0
0
0
0
0
0
0
0
0
3
7
17
35
46
49
55
56
57
57
45
26
62
56
62
70
76
43
44
38
39
34
30
18
11
3
0
0
0
0
0
0
0
0
0
0
0
0
0
0
0
0
0
0
0
4
14
29
40
43
38
27
16
6
3
0
0
0
0
1
3
4
7
7
6
4
3
0
0
0
0
0
0
0
0
0
0
0
0
0
0
0
0
0
0
0
0
0
0
0
0
0
0
0
0
0
0
0
0
0
0
0
0
0
0
0
0
0
0
0
0
0
0
0
0
0
0
0
0
0
